<svg xmlns="http://www.w3.org/2000/svg" xmlns:xlink="http://www.w3.org/1999/xlink" version="1.1" id="Layer_1" viewBox="0 0 501.998 501.998" xml:space="preserve" fill="#000000"><g id="SVGRepo_bgCarrier" stroke-width="0"></g><g id="SVGRepo_tracerCarrier" stroke-linecap="round" stroke-linejoin="round"></g><g id="SVGRepo_iconCarrier"> <g> <g> <path style="fill:#7878ff;" d="M397.948,363.48c-3.364-23.126-13.545-43.578-28.21-59.616l-1.229-1.391 c-58.325-53.035-82.485-109.065-92.008-139.704c-11.586-1.759-23.432-5.054-32.269-11.052 c-24.779-16.819-39.971-35.232-41.363-15.955c-1.392,19.278,3.816,46.652,3.816,46.652s-19.353,0.011-30.327-24.859 c-4.536-10.28-9.328-18.05-13.389-23.627c-3.523-4.838-11.125-3.028-12.029,2.888c-2.095,13.711-5.815,34.468-10.963,49.388 c-4.484,12.996-16.741,25.059-27.123,33.443c15.691,91.38,29.031,148.288,52.616,192.561 c20.813,39.071,75.956,87.655,137.403,78.716C364.321,481.985,406.887,424.927,397.948,363.48z"></path> <path style="fill:#39B54A;" d="M270.747,139.335c-6.783-46.629-45.511-79.742-91.85-74.476L165.182,10l-8.777,10.303 c-9.252,10.861-12.689,25.521-9.229,39.363l3.415,13.66c-32.926,16.767-52.827,54.541-46.618,92.841 c3.089,19.059,6.025,36.839,8.882,53.48c10.382-8.384,22.639-20.446,27.123-33.443c5.147-14.92,8.868-35.677,10.963-49.388 c0.904-5.916,8.507-7.727,12.029-2.888c4.061,5.578,8.853,13.347,13.389,23.627c10.973,24.871,30.327,24.859,30.327,24.859 s-5.208-27.375-3.816-46.652c1.392-19.277,16.584-0.865,41.363,15.955c8.837,5.998,20.683,9.293,32.269,11.052 C271.966,148.176,270.747,139.335,270.747,139.335z"></path> </g> <g> <path d="M407.843,362.04c-3.541-24.341-14.146-46.769-30.669-64.863l-1.171-1.325c-0.241-0.273-0.497-0.533-0.767-0.778 c-57.179-51.994-80.421-107.071-89.186-135.274c-4.187-13.471-5.389-21.768-5.408-21.905 c-7.274-50.003-46.921-84.584-94.07-83.566L174.884,7.575c-0.908-3.634-3.771-6.456-7.418-7.311 c-3.651-0.855-7.467,0.4-9.896,3.251l-8.777,10.303c-11.32,13.29-15.552,31.335-11.317,48.273l1.569,6.28 c-32.99,20.537-51.286,60.263-44.942,99.396c3.459,21.342,6.286,38.366,8.897,53.573c15.225,88.663,28.884,149.087,53.646,195.57 c12.083,22.682,33.308,45.486,56.775,61.001c24.049,15.9,49.528,24.086,74.563,24.086c5.471,0,10.921-0.391,16.329-1.178 c32.362-4.708,60.953-21.736,80.508-47.949C404.375,426.66,412.551,394.402,407.843,362.04z M155.13,82.237 c4.151-2.114,6.293-6.816,5.163-11.336l-3.415-13.66c-2.152-8.61-0.837-17.676,3.492-25.258l8.825,35.301 c1.216,4.865,5.854,8.079,10.83,7.511c39.947-4.538,74.693,23.827,80.815,65.906c0.031,0.221,0.465,3.301,1.678,8.655 c-5.014-1.622-9.256-3.595-12.671-5.913c-5.917-4.017-11.361-8.201-16.164-11.893c-13.352-10.264-22.174-17.043-31.593-12.816 c-5.499,2.467-8.594,7.954-9.196,16.308c-0.719,9.952,0.161,21.667,1.273,31.178c-2.995-2.791-6.073-6.837-8.66-12.701 c-4.18-9.472-9.042-18.043-14.455-25.478c-4.008-5.504-10.866-8.019-17.475-6.411c-6.584,1.604-11.499,6.973-12.523,13.676 c-3.025,19.807-6.766,36.725-10.53,47.637c-1.796,5.205-5.502,10.884-10.899,16.799c-1.75-10.465-3.645-21.991-5.782-35.175 C108.44,131.223,125.416,97.368,155.13,82.237z M368.79,440.913c-16.359,21.93-40.28,36.177-67.355,40.115 c-56.323,8.191-108.247-38.061-127.137-73.521c-22.981-43.139-36.122-100.323-50.609-183.888 c13.235-11.5,21.887-22.972,25.743-34.153c4.373-12.674,7.731-29.082,10.047-42.759c2.787,4.564,5.375,9.544,7.731,14.885 c13.438,30.459,38.379,30.823,39.479,30.823c0.001,0,0.002,0,0.003,0c2.979-0.002,5.801-1.331,7.699-3.626 c1.898-2.295,2.676-5.317,2.119-8.243c-0.046-0.24-4.214-22.388-3.859-39.768c2.753,1.945,5.984,4.43,8.846,6.628 c5.022,3.861,10.714,8.236,17.12,12.584c7.742,5.255,17.892,9.144,30.232,11.591c7.302,21.611,21.53,54.311,48.165,89.451 c-2.469-0.626-4.965-1.202-7.51-1.684c-5.427-1.029-10.659,2.537-11.688,7.963c-1.028,5.426,2.537,10.659,7.963,11.688 c17.403,3.299,33.832,11.241,47.356,22.733c2.467,2.391,4.987,4.779,7.585,7.16c0.543,0.566,1.094,1.125,1.623,1.704 c0.005,0.005,0.01,0.011,0.015,0.016c13.843,15.138,22.728,33.917,25.694,54.307C391.99,391.994,385.151,418.983,368.79,440.913z"></path> <path d="M276.21,257.682c-2.379,0.206-4.784,0.485-7.147,0.83c-5.465,0.795-9.251,5.871-8.455,11.336 c0.725,4.977,4.997,8.561,9.883,8.561c0.479,0,0.965-0.035,1.453-0.106c1.982-0.289,4-0.522,5.995-0.696 c5.502-0.477,9.576-5.325,9.099-10.827C286.56,261.277,281.707,257.198,276.21,257.682z"></path> </g> </g> </g></svg>